<mxfile host="app.diagrams.net" modified="2023-06-09T15:27:43.809Z" agent="Mozilla/5.0 (Windows NT 10.0; Win64; x64) AppleWebKit/537.36 (KHTML, like Gecko) Chrome/114.0.0.0 Safari/537.36" etag="a1QeX56w3zONAEQ445Zi" version="21.3.7" type="google">
  <diagram name="Página-1" id="R95nYsYYiMNeMXYoWrTs">
    <mxGraphModel grid="1" page="1" gridSize="10" guides="1" tooltips="1" connect="1" arrows="1" fold="1" pageScale="1" pageWidth="827" pageHeight="1169" math="0" shadow="0">
      <root>
        <mxCell id="0" />
        <mxCell id="1" parent="0" />
        <mxCell id="nFpcpEc9JABC4BX-4DVB-32" style="edgeStyle=orthogonalEdgeStyle;rounded=0;orthogonalLoop=1;jettySize=auto;html=1;dashed=1;dashPattern=1 2;" edge="1" parent="1" source="nFpcpEc9JABC4BX-4DVB-19" target="nFpcpEc9JABC4BX-4DVB-1">
          <mxGeometry relative="1" as="geometry" />
        </mxCell>
        <mxCell id="i8mLh2G2zFsKXM1E0jvs-5" value="" style="text;strokeColor=default;fillColor=none;align=left;verticalAlign=middle;spacingTop=-1;spacingLeft=4;spacingRight=4;rotatable=0;labelPosition=right;points=[];portConstraint=eastwest;strokeWidth=1;dashed=1;" vertex="1" parent="1">
          <mxGeometry x="210" y="50" width="390" height="450" as="geometry" />
        </mxCell>
        <mxCell id="i8mLh2G2zFsKXM1E0jvs-1" value="Usuario" style="shape=umlActor;verticalLabelPosition=bottom;verticalAlign=top;html=1;" vertex="1" parent="1">
          <mxGeometry x="100" y="220" width="30" height="60" as="geometry" />
        </mxCell>
        <mxCell id="i8mLh2G2zFsKXM1E0jvs-2" value="Convertir datos" style="ellipse;whiteSpace=wrap;html=1;" vertex="1" parent="1">
          <mxGeometry x="230" y="70" width="140" height="70" as="geometry" />
        </mxCell>
        <mxCell id="i8mLh2G2zFsKXM1E0jvs-3" value="Procesar muestras" style="ellipse;whiteSpace=wrap;html=1;" vertex="1" parent="1">
          <mxGeometry x="440" y="160" width="140" height="70" as="geometry" />
        </mxCell>
        <mxCell id="i8mLh2G2zFsKXM1E0jvs-4" value="Guardar sondas" style="ellipse;whiteSpace=wrap;html=1;" vertex="1" parent="1">
          <mxGeometry x="230" y="330" width="140" height="70" as="geometry" />
        </mxCell>
        <mxCell id="nFpcpEc9JABC4BX-4DVB-20" style="edgeStyle=orthogonalEdgeStyle;rounded=0;orthogonalLoop=1;jettySize=auto;html=1;" edge="1" parent="1" source="i8mLh2G2zFsKXM1E0jvs-6" target="nFpcpEc9JABC4BX-4DVB-15">
          <mxGeometry relative="1" as="geometry">
            <Array as="points">
              <mxPoint x="670" y="105" />
            </Array>
          </mxGeometry>
        </mxCell>
        <mxCell id="i8mLh2G2zFsKXM1E0jvs-6" value="Sistema" style="shape=umlActor;verticalLabelPosition=bottom;verticalAlign=top;html=1;" vertex="1" parent="1">
          <mxGeometry x="660" y="220" width="30" height="60" as="geometry" />
        </mxCell>
        <mxCell id="nFpcpEc9JABC4BX-4DVB-1" value="Filtrar sondas" style="ellipse;whiteSpace=wrap;html=1;" vertex="1" parent="1">
          <mxGeometry x="440" y="250" width="140" height="70" as="geometry" />
        </mxCell>
        <mxCell id="nFpcpEc9JABC4BX-4DVB-2" value="Cargar resultados" style="ellipse;whiteSpace=wrap;html=1;" vertex="1" parent="1">
          <mxGeometry x="230" y="410" width="140" height="70" as="geometry" />
        </mxCell>
        <mxCell id="nFpcpEc9JABC4BX-4DVB-3" value="Generar resultados" style="ellipse;whiteSpace=wrap;html=1;" vertex="1" parent="1">
          <mxGeometry x="440" y="410" width="140" height="70" as="geometry" />
        </mxCell>
        <mxCell id="nFpcpEc9JABC4BX-4DVB-14" value="*Usuario y sistema están presentes en todos los casos de uso&lt;br&gt;a menos que esté especificado" style="text;html=1;strokeColor=none;fillColor=none;align=center;verticalAlign=middle;whiteSpace=wrap;rounded=0;" vertex="1" parent="1">
          <mxGeometry x="210" y="509" width="340" height="30" as="geometry" />
        </mxCell>
        <mxCell id="nFpcpEc9JABC4BX-4DVB-33" style="edgeStyle=orthogonalEdgeStyle;rounded=0;orthogonalLoop=1;jettySize=auto;html=1;dashed=1;dashPattern=1 2;" edge="1" parent="1" source="nFpcpEc9JABC4BX-4DVB-18" target="i8mLh2G2zFsKXM1E0jvs-3">
          <mxGeometry relative="1" as="geometry" />
        </mxCell>
        <mxCell id="nFpcpEc9JABC4BX-4DVB-21" style="edgeStyle=orthogonalEdgeStyle;rounded=0;orthogonalLoop=1;jettySize=auto;html=1;entryX=1;entryY=0.5;entryDx=0;entryDy=0;dashed=1;dashPattern=1 2;" edge="1" parent="1" source="nFpcpEc9JABC4BX-4DVB-15" target="i8mLh2G2zFsKXM1E0jvs-2">
          <mxGeometry relative="1" as="geometry" />
        </mxCell>
        <mxCell id="nFpcpEc9JABC4BX-4DVB-22" style="edgeStyle=orthogonalEdgeStyle;rounded=0;orthogonalLoop=1;jettySize=auto;html=1;entryX=1;entryY=0.5;entryDx=0;entryDy=0;dashed=1;dashPattern=1 2;" edge="1" parent="1" source="nFpcpEc9JABC4BX-4DVB-15" target="nFpcpEc9JABC4BX-4DVB-18">
          <mxGeometry relative="1" as="geometry" />
        </mxCell>
        <mxCell id="nFpcpEc9JABC4BX-4DVB-25" style="edgeStyle=orthogonalEdgeStyle;rounded=0;orthogonalLoop=1;jettySize=auto;html=1;entryX=1;entryY=0.5;entryDx=0;entryDy=0;dashed=1;dashPattern=1 2;" edge="1" parent="1" source="nFpcpEc9JABC4BX-4DVB-15" target="nFpcpEc9JABC4BX-4DVB-19">
          <mxGeometry relative="1" as="geometry" />
        </mxCell>
        <mxCell id="nFpcpEc9JABC4BX-4DVB-29" style="edgeStyle=orthogonalEdgeStyle;rounded=0;orthogonalLoop=1;jettySize=auto;html=1;entryX=1;entryY=0.5;entryDx=0;entryDy=0;dashed=1;dashPattern=1 2;" edge="1" parent="1" source="nFpcpEc9JABC4BX-4DVB-15" target="nFpcpEc9JABC4BX-4DVB-2">
          <mxGeometry relative="1" as="geometry" />
        </mxCell>
        <mxCell id="nFpcpEc9JABC4BX-4DVB-30" style="edgeStyle=orthogonalEdgeStyle;rounded=0;orthogonalLoop=1;jettySize=auto;html=1;entryX=1;entryY=0.5;entryDx=0;entryDy=0;dashed=1;dashPattern=1 2;" edge="1" parent="1" source="nFpcpEc9JABC4BX-4DVB-15" target="i8mLh2G2zFsKXM1E0jvs-4">
          <mxGeometry relative="1" as="geometry" />
        </mxCell>
        <mxCell id="nFpcpEc9JABC4BX-4DVB-15" value="Avisar (loguear)" style="ellipse;whiteSpace=wrap;html=1;" vertex="1" parent="1">
          <mxGeometry x="440" y="70" width="140" height="70" as="geometry" />
        </mxCell>
        <mxCell id="nFpcpEc9JABC4BX-4DVB-18" value="Cargar muestras" style="ellipse;whiteSpace=wrap;html=1;" vertex="1" parent="1">
          <mxGeometry x="230" y="160" width="140" height="70" as="geometry" />
        </mxCell>
        <mxCell id="nFpcpEc9JABC4BX-4DVB-19" value="Cargar sondas" style="ellipse;whiteSpace=wrap;html=1;" vertex="1" parent="1">
          <mxGeometry x="230" y="250" width="140" height="70" as="geometry" />
        </mxCell>
        <mxCell id="ywlQqnQKzdubcxtYDlx5-1" value="Mapear sondas" style="ellipse;whiteSpace=wrap;html=1;" vertex="1" parent="1">
          <mxGeometry x="440" y="330" width="140" height="70" as="geometry" />
        </mxCell>
      </root>
    </mxGraphModel>
  </diagram>
</mxfile>
